HIERARCHY
ROOT Hips
{
	OFFSET -0.001795 -0.223333 0.028219
	CHANNELS 6 Xposition Yposition Zposition Zrotation Yrotation Xrotation 
	JOINT LeftUpLeg
	{
		OFFSET 0.069520 -0.091406 -0.006815
		CHANNELS 3 Zrotation Yrotation Xrotation
		JOINT LeftLeg
		{
			OFFSET 0.034277 -0.375199 -0.004496
			CHANNELS 3 Zrotation Yrotation Xrotation
			JOINT LeftFoot
			{
				OFFSET -0.013596 -0.397961 -0.043693
				CHANNELS 3 Zrotation Yrotation Xrotation
				JOINT LeftToe
				{
					OFFSET 0.026358 -0.055791 0.119288
					CHANNELS 3 Zrotation Yrotation Xrotation
					End Site
					{
						OFFSET 0.000000 0.000000 0.000000
					}
				}
			}
		}
	}
	JOINT RightUpLeg
	{
		OFFSET -0.067670 -0.090522 -0.004320
		CHANNELS 3 Zrotation Yrotation Xrotation
		JOINT RightLeg
		{
			OFFSET -0.038290 -0.382569 -0.008850
			CHANNELS 3 Zrotation Yrotation Xrotation
			JOINT RightFoot
			{
				OFFSET 0.015774 -0.398415 -0.042312
				CHANNELS 3 Zrotation Yrotation Xrotation
				JOINT RightToe
				{
					OFFSET -0.025372 -0.048144 0.123348
					CHANNELS 3 Zrotation Yrotation Xrotation
					End Site
					{
						OFFSET 0.000000 0.000000 0.000000
					}
				}
			}
		}
	}
	JOINT Spine
	{
		OFFSET -0.002533 0.108963 -0.026696
		CHANNELS 3 Zrotation Yrotation Xrotation
		JOINT Spine1
		{
			OFFSET 0.005487 0.135180 0.001092
			CHANNELS 3 Zrotation Yrotation Xrotation
			JOINT Spine2
			{
				OFFSET 0.001457 0.052922 0.025425
				CHANNELS 3 Zrotation Yrotation Xrotation
				JOINT Neck
				{
					OFFSET -0.002778 0.213870 -0.042857
					CHANNELS 3 Zrotation Yrotation Xrotation
					JOINT Head
					{
						OFFSET 0.005152 0.064970 0.051349
						CHANNELS 3 Zrotation Yrotation Xrotation
						End Site
						{
							OFFSET 0.000000 0.000000 0.000000
						}
					}
				}
				JOINT LeftShoulder
				{
					OFFSET 0.078845 0.121749 -0.034090
					CHANNELS 3 Zrotation Yrotation Xrotation
					JOINT LeftArm
					{
						OFFSET 0.090977 0.030469 -0.008868
						CHANNELS 3 Zrotation Yrotation Xrotation
						JOINT LeftForeArm
						{
							OFFSET 0.259612 -0.012772 -0.027456
							CHANNELS 3 Zrotation Yrotation Xrotation
							JOINT LeftHand
							{
								OFFSET 0.249234 0.008986 -0.001171
								CHANNELS 3 Zrotation Yrotation Xrotation
								End Site
								{
									OFFSET 0.000000 0.000000 0.000000
								}
							}
						}
					}
				}
				JOINT RightShoulder
				{
					OFFSET -0.081759 0.118833 -0.038615
					CHANNELS 3 Zrotation Yrotation Xrotation
					JOINT RightArm
					{
						OFFSET -0.096012 0.032551 -0.009143
						CHANNELS 3 Zrotation Yrotation Xrotation
						JOINT RightForeArm
						{
							OFFSET -0.253742 -0.013329 -0.021401
							CHANNELS 3 Zrotation Yrotation Xrotation
							JOINT RightHand
							{
								OFFSET -0.255298 0.007772 -0.005559
								CHANNELS 3 Zrotation Yrotation Xrotation
								End Site
								{
									OFFSET 0.000000 0.000000 0.000000
								}
							}
						}
					}
				}
			}
		}
	}
}
MOTION
Frames: 11
Frame Time: 0.050000
-0.648170 0.920403 -1.329486 -14.514053 53.861223 -7.181372 23.866973 -4.542557 -8.265438 -20.100957 -0.768835 17.512495 29.666334 36.273872 24.823082 0.000000 0.000000 0.000000 -13.107251 -6.208151 -22.449168 -0.014004 -2.558172 19.997175 -3.298571 -4.130612 21.856655 0.000000 0.000000 0.000000 4.129631 -0.211747 2.046932 -2.986599 2.045599 -23.136818 2.033872 13.346123 32.011043 13.274655 3.593141 -35.022173 0.000000 0.000000 0.000000 -0.410076 -5.088817 -1.647367 -55.239318 -8.713930 -8.819528 -86.533281 -56.978999 34.634771 0.000000 0.000000 0.000000 3.510587 -3.240916 0.460135 46.533754 27.768131 9.548807 -117.379491 56.909805 -49.439530 0.000000 0.000000 0.000000 
-0.641501 0.925974 -1.369219 -14.302366 56.699389 -6.593483 21.016176 -3.965288 -9.027697 -17.837520 -1.089219 16.064264 27.249222 34.127633 21.981536 0.000000 0.000000 0.000000 -11.887335 -5.089608 -19.181892 1.563754 -4.586202 23.268988 -3.989330 -5.224184 17.974551 0.000000 0.000000 0.000000 4.902683 -0.303129 2.293214 -2.553394 2.003931 -23.225927 -0.185050 15.578629 31.317385 15.212453 3.285798 -35.681032 0.000000 0.000000 0.000000 -1.684940 -7.326147 -2.187533 -50.027833 -7.081739 -7.311364 -73.729395 -61.128278 28.934278 0.000000 0.000000 0.000000 6.533470 -4.205904 1.752404 38.581208 32.710516 8.706446 -105.643893 49.076431 -31.689718 0.000000 0.000000 0.000000 
-0.633781 0.928160 -1.409408 -12.633134 59.967387 -5.790039 18.313875 -3.489114 -8.472843 -16.246438 -1.309244 14.233421 24.216095 31.102867 20.703277 0.000000 0.000000 0.000000 -12.672917 -5.100228 -16.318866 1.917687 -5.526989 24.200985 -5.095746 -7.267581 15.347492 0.000000 0.000000 0.000000 4.848983 -0.288065 2.090660 -4.745505 2.411839 -21.896036 0.210172 13.295972 29.694528 13.862750 3.880906 -35.756147 0.000000 0.000000 0.000000 -1.439845 -6.465840 -2.212255 -48.446285 -8.565905 -6.371563 -54.820154 -63.799444 19.493027 0.000000 0.000000 0.000000 5.016424 -3.138219 1.618855 32.641510 33.869819 7.339397 -91.050600 41.217521 -16.624149 0.000000 0.000000 0.000000 
-0.626200 0.927718 -1.450805 -10.463332 62.745296 -3.666121 14.961291 -2.831275 -10.259877 -14.872016 -1.588797 15.037042 22.342435 29.332698 16.411048 0.000000 0.000000 0.000000 -13.727601 -5.425494 -14.433278 0.984533 -5.480451 24.268736 -6.765100 -10.580755 13.209741 0.000000 0.000000 0.000000 4.254399 -0.371194 3.408478 -2.940763 1.947927 -24.492163 -1.154248 13.861384 30.845384 14.463800 4.168778 -37.303300 0.000000 0.000000 0.000000 -1.205489 -6.900969 -2.384982 -44.210424 -10.411032 -4.677596 -39.670160 -62.248750 9.318590 0.000000 0.000000 0.000000 3.279455 -2.841862 1.251488 25.998595 33.046659 5.496216 -80.393513 36.074775 -8.905054 0.000000 0.000000 0.000000 
-0.618698 0.926803 -1.492560 -10.295570 63.197228 -3.172952 13.333875 -2.559376 -12.072377 -15.377775 -1.795929 16.671185 24.213256 31.172522 15.992292 0.000000 0.000000 0.000000 -11.713787 -4.702055 -15.105511 0.290604 -6.109334 26.520789 -5.397216 -9.849434 7.973386 0.000000 0.000000 0.000000 5.377290 -0.406290 2.644576 -2.533006 2.024814 -22.990783 -0.756977 15.130645 29.876764 12.653553 5.094367 -37.897814 0.000000 0.000000 0.000000 0.224642 -6.630152 -1.540103 -42.151720 -12.400393 -4.102082 -20.549457 -60.899359 -1.624695 0.000000 0.000000 0.000000 1.107689 -2.712928 0.323268 21.100200 29.952682 3.681500 -69.667855 32.800894 -4.548437 0.000000 0.000000 0.000000 
-0.610906 0.926887 -1.532439 -8.607795 62.997407 -1.737588 12.230574 -2.380009 -12.557525 -14.917810 -1.758319 16.433122 24.334630 31.363922 14.159115 0.000000 0.000000 0.000000 -10.654817 -4.379495 -15.864164 1.464389 -7.220500 27.777616 -3.259009 -8.164480 0.665541 0.000000 0.000000 0.000000 6.572809 -0.622735 3.460301 -2.439484 1.835867 -24.671554 -0.372825 14.478972 30.438680 11.559147 5.486832 -37.030935 0.000000 0.000000 0.000000 1.134915 -4.382919 -1.548060 -39.656175 -12.455617 -3.574688 -5.244974 -52.910356 -8.338634 0.000000 0.000000 0.000000 -2.339682 -1.957531 -1.081951 21.089224 29.481323 3.971543 -61.530013 32.889984 -3.282899 0.000000 0.000000 0.000000 
-0.601702 0.926490 -1.570802 -4.931726 61.933489 2.122895 10.023037 -2.092393 -13.037891 -13.494034 -1.669841 16.315153 23.394679 30.852544 13.200045 0.000000 0.000000 0.000000 -8.866167 -3.377207 -15.380082 4.211854 -7.773208 25.552282 -2.277628 -8.244655 -4.890492 0.000000 0.000000 0.000000 7.004863 -0.709454 3.444316 -2.061950 1.825966 -24.232022 -0.575586 15.662764 29.254728 12.759726 4.819313 -34.900717 0.000000 0.000000 0.000000 1.274990 -4.354375 -1.404270 -35.701001 -10.262793 -3.080634 6.309933 -44.333230 -11.059625 0.000000 0.000000 0.000000 -1.316907 -1.896254 -0.479210 19.036022 30.126828 3.477124 -56.873231 32.949559 -3.414946 0.000000 0.000000 0.000000 
-0.591710 0.923670 -1.609608 -1.843286 60.945094 5.129583 7.908255 -1.818566 -12.880046 -12.945708 -1.549015 15.440718 22.650889 30.339541 12.118941 0.000000 0.000000 0.000000 -9.131460 -3.168939 -14.472249 5.902105 -7.262431 22.371621 -3.632218 -10.911914 -3.061543 0.000000 0.000000 0.000000 7.935727 -0.863556 3.437338 -2.688076 1.877394 -24.094858 0.812366 16.226473 28.602277 9.950029 5.829303 -33.429474 0.000000 0.000000 0.000000 1.660915 -2.721426 -1.590048 -32.980306 -9.453360 -2.797299 13.591515 -33.737614 -10.280470 0.000000 0.000000 0.000000 -1.233222 -2.431853 -0.764321 19.039629 31.518555 3.789238 -52.741252 32.224328 -2.838869 0.000000 0.000000 0.000000 
-0.582969 0.918873 -1.650105 1.019716 60.158506 7.562463 6.580477 -1.655748 -12.561831 -12.171370 -1.434857 14.446552 20.679171 28.383041 9.683888 0.000000 0.000000 0.000000 -11.227574 -3.849614 -14.002256 4.505479 -5.839615 20.927214 -4.647640 -14.034950 -3.699578 0.000000 0.000000 0.000000 9.473098 -1.358628 4.996827 -3.113814 1.817524 -25.169098 1.873603 18.881068 29.024161 8.982424 6.523559 -35.385774 0.000000 0.000000 0.000000 2.246537 -1.390174 -1.877860 -29.961738 -10.748573 -2.178200 15.605572 -22.268730 -7.219483 0.000000 0.000000 0.000000 -0.178832 -4.474640 -1.237267 17.514043 32.639294 3.654393 -49.344505 31.818151 -2.263094 0.000000 0.000000 0.000000 
-0.576388 0.915796 -1.691964 1.248623 59.535085 7.555166 6.690441 -1.694594 -12.900966 -12.416422 -1.479340 15.460288 20.090403 27.570209 6.147958 0.000000 0.000000 0.000000 -11.456021 -4.153078 -15.436434 2.850771 -4.848262 20.872466 -5.361811 -15.942039 -3.883189 0.000000 0.000000 0.000000 10.719942 -1.664175 5.362800 -2.892484 1.802123 -24.867866 2.729247 19.242723 29.486094 7.274424 7.130795 -35.841430 0.000000 0.000000 0.000000 3.080380 0.654378 -1.946104 -29.398561 -9.831227 -2.352888 19.486215 -18.852503 -7.427198 0.000000 0.000000 0.000000 -1.306328 -3.822968 -1.490211 18.620072 32.819901 4.190685 -44.945826 32.245838 -2.129426 0.000000 0.000000 0.000000 
-0.571143 0.914607 -1.733683 2.625947 58.287951 8.188870 7.232723 -1.788831 -13.437697 -13.690540 -1.550786 17.208649 18.872249 26.883879 5.436271 0.000000 0.000000 0.000000 -13.623635 -5.344109 -17.058611 1.558363 -4.051069 21.106450 -6.019369 -15.316600 -0.725571 0.000000 0.000000 0.000000 11.056037 -1.968969 6.676262 -2.523496 1.765630 -24.726142 3.579603 20.398719 29.099602 6.136787 7.434146 -35.155985 0.000000 0.000000 0.000000 3.698073 2.399758 -2.038895 -28.595924 -9.535745 -2.359465 20.251933 -16.044481 -6.759364 0.000000 0.000000 0.000000 -2.845426 -2.868107 -1.714759 19.240311 32.950339 4.767502 -39.649132 32.325159 -1.873858 0.000000 0.000000 0.000000 
